<svg width="25" height="25" viewBox="0 0 25 25" fill="none" xmlns="http://www.w3.org/2000/svg">
<rect width="25" height="25" rx="12.5" fill="#EADDFF"/>
<path fill-rule="evenodd" clip-rule="evenodd" d="M16.2499 10C16.2499 12.0711 14.571 13.75 12.4999 13.75C10.4288 13.75 8.74991 12.0711 8.74991 10C8.74991 7.92893 10.4288 6.25 12.4999 6.25C14.571 6.25 16.2499 7.92893 16.2499 10ZM14.9999 10C14.9999 11.3807 13.8806 12.5 12.4999 12.5C11.1192 12.5 9.99991 11.3807 9.99991 10C9.99991 8.61929 11.1192 7.5 12.4999 7.5C13.8806 7.5 14.9999 8.61929 14.9999 10Z" fill="#434343"/>
<path d="M12.4999 15.625C8.45342 15.625 5.0057 18.0178 3.69238 21.37C4.01232 21.6877 4.34934 21.9882 4.70196 22.27C5.67993 19.1923 8.74786 16.875 12.4999 16.875C16.252 16.875 19.3199 19.1923 20.2979 22.27C20.6505 21.9882 20.9875 21.6877 21.3074 21.37C19.9941 18.0178 16.5464 15.625 12.4999 15.625Z" fill="#434343"/>
</svg>
